<svg width="39" height="42" viewBox="0 0 39 42" fill="none" xmlns="http://www.w3.org/2000/svg">
<path d="M6.52763 31.2217C6.78063 31.4953 6.9745 31.8255 7.09542 32.1889C7.21634 32.5524 7.26133 32.9401 7.22719 33.3244C7.05588 35.103 6.7311 36.8606 6.25706 38.5744C9.65737 37.7265 11.7341 36.7447 12.6774 36.2302C13.2125 35.9384 13.8286 35.8693 14.4081 36.036C16.0691 36.5129 17.781 36.7529 19.5 36.75C29.2402 36.75 36.5625 29.3816 36.5625 21C36.5625 12.621 29.2402 5.25 19.5 5.25C9.75975 5.25 2.4375 12.621 2.4375 21C2.4375 24.8535 3.94144 28.4287 6.52763 31.2217ZM5.32594 41.4724C4.74842 41.5957 4.16902 41.7086 3.588 41.811C3.1005 41.895 2.73 41.349 2.92256 40.8607C3.13899 40.3111 3.33737 39.7533 3.51731 39.1886L3.52463 39.1624C4.12913 37.2724 4.6215 35.0989 4.80188 33.075C1.81106 29.8462 0 25.62 0 21C0 10.8517 8.73112 2.625 19.5 2.625C30.2689 2.625 39 10.8517 39 21C39 31.1482 30.2689 39.375 19.5 39.375C17.5687 39.3778 15.6453 39.1077 13.7792 38.5717C12.5117 39.2621 9.78412 40.5195 5.32594 41.4724Z" fill="#0F211A"/>
<path d="M9.75 14.4375C9.75 14.0894 9.8784 13.7556 10.107 13.5094C10.3355 13.2633 10.6455 13.125 10.9688 13.125H28.0312C28.3545 13.125 28.6645 13.2633 28.893 13.5094C29.1216 13.7556 29.25 14.0894 29.25 14.4375C29.25 14.7856 29.1216 15.1194 28.893 15.3656C28.6645 15.6117 28.3545 15.75 28.0312 15.75H10.9688C10.6455 15.75 10.3355 15.6117 10.107 15.3656C9.8784 15.1194 9.75 14.7856 9.75 14.4375ZM9.75 21C9.75 20.6519 9.8784 20.3181 10.107 20.0719C10.3355 19.8258 10.6455 19.6875 10.9688 19.6875H28.0312C28.3545 19.6875 28.6645 19.8258 28.893 20.0719C29.1216 20.3181 29.25 20.6519 29.25 21C29.25 21.3481 29.1216 21.6819 28.893 21.9281C28.6645 22.1742 28.3545 22.3125 28.0312 22.3125H10.9688C10.6455 22.3125 10.3355 22.1742 10.107 21.9281C9.8784 21.6819 9.75 21.3481 9.75 21ZM9.75 27.5625C9.75 27.2144 9.8784 26.8806 10.107 26.6344C10.3355 26.3883 10.6455 26.25 10.9688 26.25H20.7188C21.042 26.25 21.352 26.3883 21.5805 26.6344C21.8091 26.8806 21.9375 27.2144 21.9375 27.5625C21.9375 27.9106 21.8091 28.2444 21.5805 28.4906C21.352 28.7367 21.042 28.875 20.7188 28.875H10.9688C10.6455 28.875 10.3355 28.7367 10.107 28.4906C9.8784 28.2444 9.75 27.9106 9.75 27.5625Z" fill="#0F211A"/>
</svg>
