<svg width="37" height="37" viewBox="0 0 37 37" fill="none" xmlns="http://www.w3.org/2000/svg">
<g clip-path="url(#clip0)">
<rect width="37" height="37" fill="#ADAB76"/>
<path d="M19.6562 23.125C19.018 23.125 18.5 22.089 18.5 20.8125C18.5 19.536 19.018 18.5 19.6562 18.5C20.2945 18.5 20.8125 19.536 20.8125 20.8125C20.8125 22.089 20.2945 23.125 19.6562 23.125Z" fill="#0F211A"/>
<path d="M25.0398 0.282115C25.1648 0.39081 25.265 0.525114 25.3337 0.675929C25.4023 0.826744 25.4377 0.990546 25.4375 1.15624V2.31249H26.5938C27.5137 2.31249 28.396 2.67795 29.0465 3.32846C29.697 3.97898 30.0625 4.86127 30.0625 5.78124V34.6875H33.5312C33.8379 34.6875 34.132 34.8093 34.3488 35.0261C34.5657 35.243 34.6875 35.5371 34.6875 35.8437C34.6875 36.1504 34.5657 36.4445 34.3488 36.6613C34.132 36.8782 33.8379 37 33.5312 37H3.46875C3.16209 37 2.868 36.8782 2.65116 36.6613C2.43432 36.4445 2.3125 36.1504 2.3125 35.8437C2.3125 35.5371 2.43432 35.243 2.65116 35.0261C2.868 34.8093 3.16209 34.6875 3.46875 34.6875H6.9375V3.46874C6.93754 3.19016 7.03816 2.92096 7.22086 2.71065C7.40355 2.50033 7.65604 2.36305 7.93188 2.32405L24.1194 0.0115527C24.2832 -0.0118453 24.4502 0.000201292 24.6089 0.0468783C24.7677 0.0935553 24.9146 0.173775 25.0398 0.282115ZM26.5938 4.62499H25.4375V34.6875H27.75V5.78124C27.75 5.47458 27.6282 5.18049 27.4113 4.96365C27.1945 4.74681 26.9004 4.62499 26.5938 4.62499ZM9.25 4.47236V34.6875H23.125V2.49055L9.25 4.47236Z" fill="#0F211A"/>
</g>
<defs>
<clipPath id="clip0">
<rect width="37" height="37" fill="white"/>
</clipPath>
</defs>
</svg>
