<svg width="39" height="40" viewBox="0 0 39 40" fill="current" xmlns="http://www.w3.org/2000/svg">
<g clip-path="url(#clip0)">
<path d="M31.6875 6.41902C31.6875 5.43566 32.0727 4.49258 32.7584 3.79725C33.4441 3.10191 34.3741 2.71127 35.3438 2.71127C36.3134 2.71127 37.2434 3.10191 37.9291 3.79725C38.6148 4.49258 39 5.43566 39 6.41902V33.6092C39 34.5925 38.6148 35.5356 37.9291 36.2309C37.2434 36.9263 36.3134 37.3169 35.3438 37.3169C34.3741 37.3169 33.4441 36.9263 32.7584 36.2309C32.0727 35.5356 31.6875 34.5925 31.6875 33.6092V33.0802C26.4176 30.0126 20.7431 28.5246 14.8395 27.9314L15.8267 34.635C15.893 34.9921 15.8808 35.3597 15.791 35.7115C15.7013 36.0633 15.5361 36.3907 15.3073 36.6704C15.0785 36.9501 14.7917 37.1752 14.4673 37.3297C14.143 37.4841 13.789 37.5642 13.4306 37.5641H12.0949C11.6211 37.5641 11.1576 37.424 10.761 37.161C10.3645 36.8981 10.0521 36.5236 9.86213 36.0835L5.35275 27.4568C5.18863 27.4541 5.0245 27.4516 4.86037 27.4494C3.56939 27.4364 2.33542 26.9082 1.42571 25.9792C0.515996 25.0502 0.00378262 23.7951 0 22.4859L0 17.5423C0.00435041 16.2329 0.515701 14.9777 1.4239 14.047C2.33209 13.1163 3.56445 12.5846 4.8555 12.5665C6.87381 12.5387 8.89153 12.4769 10.9078 12.3811C18.3251 12.0004 25.8936 10.2825 31.6875 6.94552V6.41902ZM34.125 6.41902V33.6092C34.125 33.9369 34.2534 34.2513 34.482 34.4831C34.7105 34.7149 35.0205 34.8451 35.3438 34.8451C35.667 34.8451 35.977 34.7149 36.2055 34.4831C36.4341 34.2513 36.5625 33.9369 36.5625 33.6092V6.41902C36.5625 6.09123 36.4341 5.77687 36.2055 5.5451C35.977 5.31332 35.667 5.1831 35.3438 5.1831C35.0205 5.1831 34.7105 5.31332 34.482 5.5451C34.2534 5.77687 34.125 6.09123 34.125 6.41902ZM31.6875 9.75599C25.974 12.7345 18.9906 14.3091 12.1875 14.7812V25.2445C12.6263 25.2692 13.0626 25.2989 13.4964 25.3335C19.7559 25.8006 25.9106 27.1725 31.6875 30.2598V9.75599ZM9.75 25.1184V14.9098C8.13199 14.9698 6.5134 15.0126 4.8945 15.0383C4.24313 15.0461 3.62078 15.3127 3.1613 15.781C2.70183 16.2493 2.44193 16.8817 2.4375 17.5423V22.4859C2.4375 23.8454 3.5295 24.9627 4.88963 24.98C6.51039 24.999 8.13074 25.0452 9.75 25.1184ZM8.14856 27.5285L12.0705 35.0354L12.0949 35.0947H13.4306L13.4257 35.0601L12.3459 27.7287C10.9477 27.6431 9.54848 27.5756 8.14856 27.526V27.5285Z" />
</g>
<defs>
<clipPath id="clip0">
<rect width="39" height="39.5493" fill="white" transform="translate(0 0.239441)"/>
</clipPath>
</defs>
</svg>
